<?xml version="1.0" standalone="no"?><!DOCTYPE svg PUBLIC "-//W3C//DTD SVG 1.1//EN" "http://www.w3.org/Graphics/SVG/1.1/DTD/svg11.dtd"><svg t="1701659040147" class="icon" viewBox="0 0 1024 1024" version="1.1" xmlns="http://www.w3.org/2000/svg" p-id="1302" width="32" height="32" xmlns:xlink="http://www.w3.org/1999/xlink"><path d="M793.6 98.133333c-12.8-4.266667-25.6 4.266667-29.866667 17.066667C750.933333 170.666667 699.733333 213.333333 640 213.333333H384C324.266667 213.333333 273.066667 170.666667 260.266667 115.2c-4.266667-12.8-17.066667-21.333333-29.866667-17.066667C170.666667 123.733333 128 187.733333 128 256v554.666667c0 93.866667 76.8 170.666667 170.666667 170.666666h426.666666c93.866667 0 170.666667-76.8 170.666667-170.666666V256c0-68.266667-42.666667-132.266667-102.4-157.866667zM341.333333 810.666667c-25.6 0-42.666667-17.066667-42.666666-42.666667s17.066667-42.666667 42.666666-42.666667 42.666667 17.066667 42.666667 42.666667-17.066667 42.666667-42.666667 42.666667z m0-170.666667c-25.6 0-42.666667-17.066667-42.666666-42.666667s17.066667-42.666667 42.666666-42.666666 42.666667 17.066667 42.666667 42.666666-17.066667 42.666667-42.666667 42.666667z m0-170.666667c-25.6 0-42.666667-17.066667-42.666666-42.666666s17.066667-42.666667 42.666666-42.666667 42.666667 17.066667 42.666667 42.666667-17.066667 42.666667-42.666667 42.666666z m256 341.333334h-85.333333c-25.6 0-42.666667-17.066667-42.666667-42.666667s17.066667-42.666667 42.666667-42.666667h85.333333c25.6 0 42.666667 17.066667 42.666667 42.666667s-17.066667 42.666667-42.666667 42.666667z m85.333334-170.666667h-170.666667c-25.6 0-42.666667-17.066667-42.666667-42.666667s17.066667-42.666667 42.666667-42.666666h170.666667c25.6 0 42.666667 17.066667 42.666666 42.666666s-17.066667 42.666667-42.666666 42.666667z m0-170.666667h-170.666667c-25.6 0-42.666667-17.066667-42.666667-42.666666s17.066667-42.666667 42.666667-42.666667h170.666667c25.6 0 42.666667 17.066667 42.666666 42.666667s-17.066667 42.666667-42.666666 42.666666z" fill="#0d867f" p-id="1303"></path><path d="M384 42.666667h256c25.6 0 42.666667 17.066667 42.666667 42.666666s-17.066667 42.666667-42.666667 42.666667H384c-25.6 0-42.666667-17.066667-42.666667-42.666667s17.066667-42.666667 42.666667-42.666666z" fill="#0d867f" p-id="1304"></path></svg>